<svg width="30" height="30" viewBox="0 0 30 30" fill="none" xmlns="http://www.w3.org/2000/svg">
<path fill-rule="evenodd" clip-rule="evenodd" d="M8.75 3.75C5.98858 3.75 3.75 5.98858 3.75 8.75V21.25C3.75 24.0114 5.98858 26.25 8.75 26.25H21.25C24.0114 26.25 26.25 24.0114 26.25 21.25V8.75C26.25 5.98858 24.0114 3.75 21.25 3.75H8.75ZM1.25 8.75C1.25 4.60786 4.60786 1.25 8.75 1.25H21.25C25.3921 1.25 28.75 4.60786 28.75 8.75V21.25C28.75 25.3921 25.3921 28.75 21.25 28.75H8.75C4.60786 28.75 1.25 25.3921 1.25 21.25V8.75ZM15.6042 11.2365C14.8239 11.1208 14.0271 11.2541 13.327 11.6174C12.6268 11.9806 12.0591 12.5554 11.7045 13.26C11.3498 13.9645 11.2264 14.763 11.3517 15.5417C11.477 16.3204 11.8447 17.0399 12.4025 17.5976C12.9602 18.1553 13.6796 18.523 14.4583 18.6483C15.2371 18.7736 16.0355 18.6502 16.7401 18.2956C17.4446 17.941 18.0194 17.3732 18.3827 16.6731C18.746 15.973 18.8792 15.1761 18.7635 14.3959C18.6455 13.6 18.2747 12.8632 17.7058 12.2943C17.1368 11.7254 16.4 11.3545 15.6042 11.2365ZM12.1755 9.3983C13.3424 8.79283 14.6705 8.57071 15.9709 8.76354C17.2973 8.96024 18.5253 9.57833 19.4735 10.5265C20.4217 11.4747 21.0398 12.7027 21.2365 14.0292C21.4293 15.3296 21.2072 16.6576 20.6017 17.8245C19.9963 18.9914 19.0383 19.9376 17.864 20.5287C16.6898 21.1197 15.3591 21.3254 14.0612 21.1166C12.7633 20.9077 11.5642 20.2949 10.6347 19.3654C9.70512 18.4358 9.09233 17.2368 8.88348 15.9389C8.67463 14.641 8.88035 13.3103 9.47138 12.136C10.0624 10.9618 11.0087 10.0038 12.1755 9.3983ZM21.875 6.875C21.1846 6.875 20.625 7.43464 20.625 8.125C20.625 8.81536 21.1846 9.375 21.875 9.375H21.8875C22.5779 9.375 23.1375 8.81536 23.1375 8.125C23.1375 7.43464 22.5779 6.875 21.8875 6.875H21.875Z" fill="#FFF500"/>
</svg>
